<svg viewBox="0 0 128 128" xmlns="http://www.w3.org/2000/svg" xmlns:xlink="http://www.w3.org/1999/xlink" width="128.000000" height="128.000000" fill="none">
	<rect id="logo" width="128.000000" height="128.000000" x="0.000000" y="0.000000" rx="64.000000" fill="currentColor" opacity="0.1" />
	<g id="组合 1940">
		<path id="多边形 2" d="M100.971 40.3453C102.209 41.0598 102.971 42.3803 102.971 43.8094L102.971 84.1906C102.971 85.6197 102.209 86.9402 100.971 87.6547L66 107.845C64.7624 108.56 63.2376 108.56 62 107.845L27.0289 87.6547C25.7913 86.9402 25.0289 85.6197 25.0289 84.1906L25.0289 43.8094C25.0289 42.3803 25.7913 41.0598 27.0289 40.3453L62 20.1547C63.2376 19.4402 64.7624 19.4402 66 20.1547L100.971 40.3453Z" opacity="0.42" fill="currentColor" fill-rule="evenodd" />
		<path id="矩形 1634" d="M31.2204 76.9507L62.6891 58.3875C63.3115 58.0203 64.0835 58.0174 64.7086 58.38L96.7172 76.9433C98.0437 77.7126 98.0466 79.6271 96.7225 80.4004L64.714 99.0955C64.0862 99.4621 63.3088 99.4592 62.6838 99.0879L31.2151 80.3928C29.9081 79.6163 29.911 77.7231 31.2204 76.9507Z" opacity="0.74" fill="currentColor" fill-rule="evenodd" />
		<path id="矩形 1633" d="M31.2204 64.5369L62.6891 45.9736C63.3115 45.6065 64.0835 45.6036 64.7086 45.9662L96.7172 64.5295C98.0437 65.2988 98.0466 67.2132 96.7225 67.9866L64.714 86.6816C64.0862 87.0483 63.3088 87.0454 62.6838 86.6741L31.2151 67.979C29.9081 67.2025 29.911 65.3093 31.2204 64.5369Z" opacity="0.68" fill="currentColor" fill-rule="evenodd" />
		<path id="矩形 1632" d="M31.3611 52.8854L62.7172 35.0736C63.3252 34.7282 64.0696 34.7255 64.6802 35.0665L96.5742 52.8783C97.9383 53.6401 97.9413 55.6018 96.5795 56.3677L64.6855 74.3059C64.0722 74.6508 63.3227 74.6481 62.7119 74.2987L31.3558 56.3604C30.011 55.591 30.0139 53.6506 31.3611 52.8854Z" opacity="0.43" fill="currentColor" fill-rule="evenodd" />
		<path id="矢量 312" d="M88.8276 43.9026C89.5464 43.9026 90.1919 42.753 90.4248 42.2759C90.8507 43.7074 91.9311 43.9026 91.9311 43.9026C90.5203 44.1628 90.4248 45.3793 90.4248 45.3793C90.0788 44.0259 88.8276 43.9026 88.8276 43.9026Z" fill="currentColor" fill-rule="evenodd" />
		<path id="矢量 313" d="M91.9312 41.5375C92.2905 41.5375 92.6133 40.9627 92.7297 40.7241C92.9427 41.4399 93.4829 41.5375 93.4829 41.5375C92.7775 41.6676 92.7297 42.2758 92.7297 42.2758C92.5567 41.5991 91.9312 41.5375 91.9312 41.5375Z" fill="currentColor" fill-rule="evenodd" />
		<path id="矢量 314" d="M88.8276 38.4341C89.187 38.4341 89.5098 37.8593 89.6262 37.6207C89.8392 38.3365 90.3794 38.4341 90.3794 38.4341C89.674 38.5642 89.6262 39.1725 89.6262 39.1725C89.4532 38.4957 88.8276 38.4341 88.8276 38.4341Z" fill="currentColor" fill-rule="evenodd" />
		<path id="矢量 315" d="M36.0688 38.4341C36.4282 38.4341 36.751 37.8593 36.8674 37.6207C37.0804 38.3365 37.6206 38.4341 37.6206 38.4341C36.9152 38.5642 36.8674 39.1725 36.8674 39.1725C36.6944 38.4957 36.0688 38.4341 36.0688 38.4341Z" fill="currentColor" fill-rule="evenodd" />
		<path id="矢量 311" d="M37.6206 40.7991C38.3393 40.7991 38.9849 39.6495 39.2178 39.1724C39.6437 40.6039 40.7241 40.7991 40.7241 40.7991C39.3132 41.0593 39.2178 42.2758 39.2178 42.2758C38.8717 40.9224 37.6206 40.7991 37.6206 40.7991Z" fill="currentColor" fill-rule="evenodd" />
	</g>
</svg>
